<svg width="45" height="45" viewBox="0 0 45 45" fill="none" xmlns="http://www.w3.org/2000/svg">
<g id="imagesmode">
<mask id="mask0_1_41" style="mask-type:alpha" maskUnits="userSpaceOnUse" x="0" y="0" width="45" height="45">
<rect id="Bounding box" width="44.3077" height="44.3077" fill="#D9D9D9"/>
</mask>
<g mask="url(#mask0_1_41)">
<path id="imagesmode_2" d="M9.23117 40.615C7.69271 40.615 6.38501 40.0765 5.30809 38.9996C4.23117 37.9227 3.6927 36.615 3.6927 35.0765V9.23036C3.6927 7.6919 4.23117 6.3842 5.30809 5.30728C6.38501 4.23036 7.69271 3.69189 9.23117 3.69189H35.0773C36.6158 3.69189 37.9235 4.23036 39.0004 5.30728C40.0773 6.3842 40.6158 7.6919 40.6158 9.23036V35.0765C40.6158 36.615 40.0773 37.9227 39.0004 38.9996C37.9235 40.0765 36.6158 40.615 35.0773 40.615H9.23117ZM9.23117 36.9227H35.0773C35.6004 36.9227 36.0386 36.7454 36.3918 36.391C36.7463 36.0378 36.9235 35.5996 36.9235 35.0765V9.23036C36.9235 8.70728 36.7463 8.26851 36.3918 7.91405C36.0386 7.56082 35.6004 7.3842 35.0773 7.3842H9.23117C8.70809 7.3842 8.26932 7.56082 7.91486 7.91405C7.56163 8.26851 7.38501 8.70728 7.38501 9.23036V35.0765C7.38501 35.5996 7.56163 36.0378 7.91486 36.391C8.26932 36.7454 8.70809 36.9227 9.23117 36.9227ZM11.0773 33.2304L18.4619 25.8458L21.785 29.1227L25.8466 23.9996L33.2312 33.2304H11.0773ZM14.7696 18.4611C13.7542 18.4611 12.8853 18.0993 12.1629 17.3756C11.4392 16.6531 11.0773 15.7842 11.0773 14.7688C11.0773 13.7534 11.4392 12.8845 12.1629 12.1621C12.8853 11.4384 13.7542 11.0765 14.7696 11.0765C15.785 11.0765 16.6546 11.4384 17.3782 12.1621C18.1007 12.8845 18.4619 13.7534 18.4619 14.7688C18.4619 15.7842 18.1007 16.6531 17.3782 17.3756C16.6546 18.0993 15.785 18.4611 14.7696 18.4611Z" fill="#5A6B87"/>
</g>
</g>
</svg>
